<svg width="44" height="44" viewBox="0 0 44 44" fill="none" xmlns="http://www.w3.org/2000/svg">
<rect width="23" height="37" transform="translate(11 5)" fill="black"/>
<rect width="1" height="34.8235" transform="matrix(-1 0 0 1 35 6.08824)" fill="black"/>
<rect width="1" height="34.8235" transform="matrix(-1 0 0 1 11 6.08824)" fill="black"/>
<rect width="5" height="3" transform="translate(20 31)" fill="white"/>
<rect width="3" height="1" transform="matrix(1 0 0 -1 21 35)" fill="white"/>
<rect width="1" height="1" transform="translate(13 26)" fill="white"/>
<rect width="1" height="1" transform="translate(14 25)" fill="white"/>
<rect width="1" height="1" transform="translate(16 24)" fill="white"/>
<rect width="1" height="1" transform="translate(17 24)" fill="white"/>
<rect width="1" height="1" transform="translate(18 24)" fill="white"/>
<rect width="1" height="1" transform="translate(17 23)" fill="white"/>
<rect width="1" height="1" transform="translate(18 23)" fill="white"/>
<rect width="1" height="1" transform="translate(15 23)" fill="white"/>
<rect width="1" height="1" transform="translate(16 23)" fill="white"/>
<rect width="1" height="1" transform="translate(19 25)" fill="white"/>
<rect width="1" height="1" transform="translate(20 26)" fill="white"/>
<rect width="1" height="1" transform="translate(20 25)" fill="white"/>
<rect width="1" height="1" transform="translate(19 24)" fill="white"/>
<rect width="1" height="1" transform="translate(14 24)" fill="white"/>
<rect width="1" height="1" transform="translate(15 24)" fill="white"/>
<rect width="1" height="1" transform="translate(13 25)" fill="white"/>
<rect width="1" height="1" transform="translate(24 26)" fill="white"/>
<rect width="1" height="1" transform="translate(25 25)" fill="white"/>
<rect width="1" height="1" transform="translate(27 24)" fill="white"/>
<rect width="1" height="1" transform="translate(28 24)" fill="white"/>
<rect width="1" height="1" transform="translate(29 24)" fill="white"/>
<rect width="1" height="1" transform="translate(28 23)" fill="white"/>
<rect width="1" height="1" transform="translate(29 23)" fill="white"/>
<rect width="1" height="1" transform="translate(26 23)" fill="white"/>
<rect width="1" height="1" transform="translate(27 23)" fill="white"/>
<rect width="1" height="1" transform="translate(30 25)" fill="white"/>
<rect width="1" height="1" transform="translate(31 26)" fill="white"/>
<rect width="1" height="1" transform="translate(31 25)" fill="white"/>
<rect width="1" height="1" transform="translate(30 24)" fill="white"/>
<rect width="1" height="1" transform="translate(25 24)" fill="white"/>
<rect width="1" height="1" transform="translate(26 24)" fill="white"/>
<rect width="1" height="1" transform="translate(24 25)" fill="white"/>
<g clip-path="url(#clip0_1_375)">
<rect width="1" height="1" transform="translate(23 4)" fill="black"/>
<rect width="1" height="2" transform="translate(24 3)" fill="black"/>
<rect width="1" height="2" transform="translate(21 3)" fill="black"/>
<rect width="1" height="1" transform="translate(20 4)" fill="black"/>
<rect width="1" height="3" transform="translate(22 2)" fill="black"/>
</g>
<defs>
<clipPath id="clip0_1_375">
<rect width="5" height="3" fill="white" transform="translate(25 5) rotate(-180)"/>
</clipPath>
</defs>
</svg>
